<svg width="24" height="24" viewBox="0 0 24 24" fill="none" xmlns="http://www.w3.org/2000/svg">
<path d="M13.4266 11.9668C13.4264 11.0017 13.0429 10.0761 12.3605 9.39367C11.678 8.71122 10.7525 8.32774 9.78735 8.32754L6.14752 8.32695C5.18218 8.32695 4.25637 8.71043 3.57377 9.39303C2.89117 10.0756 2.50769 11.0014 2.50769 11.9668C2.50769 12.9321 2.89117 13.8579 3.57377 14.5405C4.25637 15.2231 5.18218 15.6066 6.14752 15.6066L7.96714 15.6066" stroke="#248DDA" stroke-width="2" stroke-linecap="round" stroke-linejoin="round"/>
<path d="M9.78671 11.9672C9.78691 12.9323 10.1704 13.8579 10.8528 14.5403C11.5353 15.2228 12.4608 15.6062 13.426 15.6064L17.0658 15.607C18.0311 15.607 18.9569 15.2235 19.6395 14.5409C20.3221 13.8583 20.7056 12.9325 20.7056 11.9672C20.7056 11.0019 20.3221 10.076 19.6395 9.39344C18.9569 8.71084 18.0311 8.32736 17.0658 8.32736L15.2462 8.32736" stroke="#248DDA" stroke-width="2" stroke-linecap="round" stroke-linejoin="round"/>
</svg>
